<svg xmlns="http://www.w3.org/2000/svg" viewBox="0 0 375 375" version="1.0"><defs><clipPath id="a"><path d="M123 82.5078h178v153.0899H123Zm0 0"/></clipPath><clipPath id="b"><path d="M74.2617 110.8086H252.547v153.0898H74.2617Zm0 0"/></clipPath><clipPath id="c"><path d="M123 139.1094h178v153.0898H123Zm0 0"/></clipPath></defs><g clip-path="url(#a)"><path fill="#fff" d="M293.3398 235.5977H130.461c-2.625 0-5.0039-1.3438-6.3164-3.6407-1.3125-2.2656-1.3125-4.9843 0-7.25L203.918 87.1016c1.668-2.8633 4.6484-4.5938 7.9843-4.5938 3.336 0 6.3165 1.6953 7.9844 4.5938l79.7696 137.6406c1.3125 2.2656 1.3125 4.9844 0 7.25-1.3477 2.2617-3.6875 3.6055-6.3165 3.6055Zm-164.828-8.379c-.6055 1.0235-.215 1.9102 0 2.2618.2109.3554.7773 1.1328 1.9491 1.1328h162.8438c1.1719 0 1.7734-.7774 1.9531-1.1328.211-.3516.6016-1.2383 0-2.2618L215.5195 89.5781c-.7422-1.3086-2.0937-2.086-3.6172-2.086-1.5273 0-2.875.7774-3.621 2.086Zm0 0"/></g><g clip-path="url(#b)"><path fill="#585e63" d="M244.8438 263.8984H81.9648c-2.625 0-5.0039-1.3437-6.3164-3.6406-1.3125-2.2617-1.3125-4.9844 0-7.25l79.7696-137.6055c1.668-2.8632 4.6523-4.5937 7.9843-4.5937 3.336 0 6.3165 1.6953 7.9844 4.5937l79.7735 137.6407c1.3125 2.2656 1.3125 4.9882 0 7.25-1.3477 2.2617-3.6915 3.6054-6.3165 3.6054Zm-164.832-8.3789c-.6016 1.0274-.211 1.9102 0 2.2618.2148.3554.7812 1.1328 1.953 1.1328h162.8438c1.1719 0 1.7734-.7774 1.9531-1.1329.211-.3515.6016-1.2343 0-2.2617L167.0234 117.879c-.746-1.3086-2.0937-2.086-3.621-2.086-1.5235 0-2.8712.7774-3.6172 2.086Zm0 0"/></g><g clip-path="url(#c)"><path fill="#5bf3c7" d="M293.3398 292.1992H130.461c-2.625 0-5.0039-1.3437-6.3164-3.6406-1.3125-2.2617-1.3125-4.9844 0-7.2461L203.918 143.707c1.668-2.8672 4.6484-4.5976 7.9843-4.5976 3.336 0 6.3165 1.6953 7.9844 4.5976l79.7696 137.6407c1.3125 2.2617 1.3125 4.9843 0 7.246-1.3477 2.2618-3.6875 3.6055-6.3165 3.6055Zm-164.828-8.3789c-.6055 1.0274-.215 1.9102 0 2.2656.2109.3516.7773 1.129 1.9491 1.129h162.8438c1.1719 0 1.7734-.7774 1.9531-1.129.211-.3554.6016-1.2382 0-2.2656l-79.7383-137.6406c-.7422-1.3086-2.0937-2.086-3.6172-2.086-1.5273 0-2.875.7774-3.621 2.086Zm0 0"/></g></svg>