<svg xmlns="http://www.w3.org/2000/svg" viewBox="0 0 686.86 46.93"><defs><style>.cls-1{fill:#fff;}.cls-2{fill:#5bf3c7;}</style></defs><g id="Ebene_2" data-name="Ebene 2"><g id="Ebene_1-2" data-name="Ebene 1"><rect class="cls-1" x="534.49" y="3.47" width="58.95" height="8.34" rx="1.76"/><rect class="cls-2" x="536.16" y="35.73" width="74.52" height="8.34" rx="1.76"/><rect class="cls-2" x="599" y="3.47" width="58.95" height="8.34" rx="1.76"/><rect class="cls-1" x="569.52" y="19.6" width="58.95" height="8.34" rx="1.76"/><rect class="cls-2" x="634.59" y="19.6" width="23.36" height="8.34" rx="1.76"/><rect class="cls-2" x="535.04" y="19.6" width="29.47" height="8.34" rx="1.76"/><rect class="cls-1" x="614.01" y="35.73" width="43.93" height="8.34" rx="1.76"/><circle class="cls-2" cx="667.95" cy="7.92" r="4.45"/><circle class="cls-2" cx="682.41" cy="7.92" r="4.45"/><circle class="cls-1" cx="669.07" cy="23.49" r="4.45"/><path class="cls-1" d="M9,31.79A8,8,0,0,0,17.23,38c3.57,0,6.82-1.3,6.82-4.68,0-1.76-1-3.38-5.26-4.88l-4.94-1.69C3.77,23.34,2.27,17,2.27,13.26,2.27,5.07,8.71,0,17.62,0c7,0,12.48,3.38,15.21,10L24.64,14c-1.95-4.61-5.14-5.13-7-5.13-3.12,0-5.53,1.23-5.53,4.22,0,1.17.33,3.32,4.88,4.88l4.81,1.69C32,22.88,33.8,29,33.87,33.15c0,9.56-8.32,13.78-16.32,13.78C8.84,46.93.91,42,0,33.54Z"/><path class="cls-1" d="M62.33,46.22H52.26V.71H62.33Z"/><path class="cls-1" d="M100.55,46.22h-17V.71h17c14.89,0,24.19,10.21,24.19,22.76S115.44,46.22,100.55,46.22Zm0-37.51h-7V38.22h7c8.65,0,14-6.63,14-14.75S109.2,8.71,100.55,8.71Z"/><path class="cls-1" d="M143.13,46.22V.71h30.22v8H153.2V19.89h17.49v8H153.2V38.22h20.15v8Z"/><path class="cls-1" d="M197.6,31.79A8,8,0,0,0,205.85,38c3.58,0,6.83-1.3,6.83-4.68,0-1.76-1-3.38-5.27-4.88l-4.94-1.69C192.4,23.34,190.9,17,190.9,13.26,190.9,5.07,197.34,0,206.24,0c7,0,12.48,3.38,15.21,10L213.26,14c-1.95-4.61-5.13-5.13-7-5.13-3.12,0-5.52,1.23-5.52,4.22,0,1.17.32,3.32,4.87,4.88l4.81,1.69c10.21,3.18,12,9.29,12.09,13.45,0,9.56-8.32,13.78-16.31,13.78-8.71,0-16.64-4.94-17.55-13.39Z"/><path class="cls-1" d="M272.74.71V9.17H259.8V46.22h-9.94v-37H237.05V.71Z"/><path class="cls-1" d="M315.12,29.32c1.17,4.81,3,8.71,7.54,8.71a7.15,7.15,0,0,0,4.61-2l3.58,7c-3,2.34-5.46,3.9-10.14,3.9-10.79,0-14.11-12.09-14.63-16.9h-6V46.22H290V.71h20.21c9.36,0,14.5,7,14.5,15C324.74,22.1,321.1,27.43,315.12,29.32ZM308.94,22c3.58,0,5.72-2.6,5.72-6.37s-2.14-6.43-5.72-6.43H300V22Z"/><path class="cls-1" d="M346.31,46.22V.71h30.23v8H356.39V19.89h17.49v8H356.39V38.22h20.15v8Z"/><path class="cls-1" d="M390.38,46.22,407.93.71h9.82l17.81,45.51H425l-3.25-8.52v.13H403.9V37.7l-3.12,8.52Zm16.25-16.64h12.29l-6-18.2Z"/><path class="cls-1" d="M473.45,45.7,462.08,18.53l-2.41,27.69H449.6L453.82.71H464L476.7,31.33,489.44.71h10.14l4.23,45.51H493.73l-2.4-27.69L480,45.7Z"/></g></g></svg>